# xmcd
#
# Track frame offsets:
#	150
#	24255
#	47055
#	71852
#	95490
#	125667
#	147305
#	168022
#	188960
#	211820
#	236422
#	261085
#
# Disc length: 3879 seconds
# Revision: 0
# Processed by: cddbd v1.5.2PL0 Copyright (c) Steve Scherf et al.
# Submitted via: dBpowerAMP V12.0
#
DISCID=a70f250c
DTITLE=Giorge Pettus - This Is Your Night
DYEAR=1991
DGENRE=R&B
TTITLE0=Don't Put Me Off 'Til Tomorrow
TTITLE1=Groove With You
TTITLE2=Somebody I Used To Know
TTITLE3=This Is Your Night
TTITLE4=I Wish
TTITLE5=Hold That Plane
TTITLE6=All About Love
TTITLE7=So Irresistible
TTITLE8=R U Inquisitive
TTITLE9=You Can Depend On Me
TTITLE10=Where Your Love Lies
TTITLE11=Don't Put Me off 'Til Tomorrow (Remix Vocal Version)
EXTD=
EXTT0=
EXTT1=
EXTT2=
EXTT3=
EXTT4=
EXTT5=
EXTT6=
EXTT7=
EXTT8=
EXTT9=
EXTT10=
EXTT11=
PLAYORDER=
